<?xml version="1.0" encoding="utf-8"?>
<!-- Generator: Adobe Illustrator 21.0.0, SVG Export Plug-In . SVG Version: 6.00 Build 0)  -->
<svg version="1.1" id="Capa_1" xmlns="http://www.w3.org/2000/svg" xmlns:xlink="http://www.w3.org/1999/xlink" x="0px" y="0px"
	 viewBox="0 0 193.4 169.7" style="enable-background:new 0 0 193.4 169.7;" xml:space="preserve">
<style type="text/css">
	.st0{fill:#FFFFFF;}
</style>
<g>
	<g>
		<path class="st0" d="M77.3,8.6H17.1l-1.5,7.6c7.7,0.1,11.5,2.7,11.5,7.8c0,0.8-0.1,1.5-0.1,2.1L7.7,125.4l0,0
			c-1.8,9.1,5.2,17.6,14.5,17.6h32.8c31.5,0,49.8-12.7,54.7-38.2c0.3-1.4,0.4-2.8,0.6-4.2c0.1-1.4,0.2-2.7,0.2-4
			c0-14.6-8.3-23.4-25-26.3c14.9-6.6,23.6-16.2,26.1-28.9c0.3-1.4,0.4-2.8,0.6-4.2c0.1-1.4,0.2-2.7,0.2-4
			C112.3,17.1,100.6,8.9,77.3,8.6z M79.2,105.9c-3.5,18.3-13.8,27.5-30.8,27.6h-4c-5.7,0-8.5-2.5-8.5-7.4c0-0.5,0-1,0.1-1.5
			c0.1-0.5,0.2-1.1,0.3-1.7l8.7-45.2h19.5C75,78.1,80.3,84,80.3,95.5C80.3,98.5,79.9,102,79.2,105.9z M83,39.1
			c-0.2,1.3-0.4,2.6-0.7,4c-2.8,14.5-9.5,22.2-20.1,23.1H47.2l9.5-48.4h6.8c13.2,0.4,19.9,6.3,19.9,17.8
			C83.3,36.6,83.2,37.8,83,39.1z"/>
	</g>
	<g>
		<path class="st0" d="M161.4,8.6c-10.5,0-19.5,7.4-21.5,17.7v0l-15.6,80.3c-2.8,12.7-6.6,22.6-11.5,29.7
			c-4.2,6-10.5,11.2-18.9,15.5l-1.5,8.3c12.4,0,24.9-5,37.6-15.1c11.5-9.2,18.8-21.5,21.9-37l15.9-81.5c1.3-6.6,6.6-9.9,16.1-10
			l1.5-7.8H161.4z"/>
	</g>
</g>
</svg>
